<svg xmlns="http://www.w3.org/2000/svg" width="84.875" height="84.875" viewBox="0 0 84.875 84.875">
  <g id="Group_8" data-name="Group 8" transform="translate(-9.125 -7.563)">
    <path id="Path_21" data-name="Path 21" d="M91.27,68.656c-.15-.125-17.114-12.211-21.694-11.455-2.21.39-3.471,1.9-6,4.914-.407.487-1.389,1.649-2.147,2.478a35.227,35.227,0,0,1-4.671-1.9A38.758,38.758,0,0,1,38.871,44.808a35.228,35.228,0,0,1-1.9-4.671c.832-.761,2-1.743,2.5-2.161,3-2.518,4.507-3.783,4.9-6,.8-4.58-11.331-21.538-11.455-21.691A6.476,6.476,0,0,0,28.08,7.563c-4.917,0-18.955,18.208-18.955,21.278,0,.178.257,18.3,22.6,41.023,22.7,22.316,40.819,22.574,41,22.574C75.789,92.438,94,78.4,94,73.482a6.482,6.482,0,0,0-2.73-4.827ZM72.408,86.762c-2.456-.209-17.677-2.215-36.689-20.891C16.953,46.766,15,31.52,14.8,29.157A76.542,76.542,0,0,1,28.117,13.425c.113.113.263.283.455.5A100.128,100.128,0,0,1,38.684,31.081a33.628,33.628,0,0,1-2.874,2.577,28.388,28.388,0,0,0-4.278,4.023,2.829,2.829,0,0,0-.484,2.125,32.3,32.3,0,0,0,2.73,7.472,44.446,44.446,0,0,0,20.506,20.5,32.217,32.217,0,0,0,7.472,2.733,2.829,2.829,0,0,0,2.125-.484,28.5,28.5,0,0,0,4.037-4.295c.888-1.058,2.074-2.47,2.524-2.869A99.427,99.427,0,0,1,87.632,72.99c.235.2.4.351.512.45A76.484,76.484,0,0,1,72.408,86.757Z" fill="#a73298"/>
    <path id="Path_22" data-name="Path 22" d="M54.392,30.2A16.992,16.992,0,0,1,71.367,47.171a2.829,2.829,0,1,0,5.658,0A22.659,22.659,0,0,0,54.392,24.538a2.829,2.829,0,1,0,0,5.658Z" fill="#a73298"/>
    <path id="Path_23" data-name="Path 23" d="M54.392,16.05A31.158,31.158,0,0,1,85.512,47.171a2.829,2.829,0,1,0,5.658,0A36.822,36.822,0,0,0,54.392,10.392a2.829,2.829,0,1,0,0,5.658Z" fill="#a73298"/>
  </g>
</svg>
