<svg id="Group_1" data-name="Group 1" xmlns="http://www.w3.org/2000/svg" width="30" height="30" viewBox="0 0 30 30">
  <path id="Path_1" data-name="Path 1" d="M30,15q0-.273-.01-.544a15,15,0,0,0-29.981,0Q0,14.727,0,15c0,8.284,7.705,14.456,15,14.456C22.427,29.456,30,23.284,30,15Z" fill="#a33298"/>
  <path id="Path_2" data-name="Path 2" d="M15,28.911A15,15,0,0,1,.011,14.456C0,14.636,0,14.818,0,15a15,15,0,0,0,30,0c0-.182,0-.364-.011-.544A15,15,0,0,1,15,28.911Z" fill="#9c3192"/>
  <path id="Path_3" data-name="Path 3" d="M27.5,14.456a12.517,12.517,0,0,0-25.01,0c-.008.181,0,12.265,12.505,12.265S27.513,14.636,27.5,14.456Z" fill="#e4eef9"/>
  <path id="Path_4" data-name="Path 4" d="M15,26.428A12.516,12.516,0,0,1,2.5,14.456c-.008.181-.012.362-.012.544a12.517,12.517,0,0,0,25.033,0c0-.182,0-.364-.013-.544A12.516,12.516,0,0,1,15,26.428Z" fill="#d5e0f2"/>
  <path id="Path_5" data-name="Path 5" d="M19.546,10.608a.907.907,0,0,0-1.283.009l-2.129,2.158.214,1.028.994.331,2.212-2.243A.907.907,0,0,0,19.546,10.608Z" fill="#405b6c"/>
  <path id="Path_6" data-name="Path 6" d="M13.716,12.858l-4.828-4.3A.907.907,0,0,0,7.68,9.91L12.6,14.3l1.026-.342Z" fill="#405b6c"/>
  <path id="Path_7" data-name="Path 7" d="M21.424,20.85a.452.452,0,0,1-.292-.106l-5.747-4.827a.454.454,0,0,1,.583-.695l5.747,4.827a.454.454,0,0,1-.292.8Z" fill="#86dcff"/>
  <path id="Path_8" data-name="Path 8" d="M12.6,14.3l.847.755,1.088-.37-.059-1.144-.764-.681A2.5,2.5,0,0,0,12.6,14.3Z" fill="#2d4456"/>
  <path id="Path_9" data-name="Path 9" d="M16.135,12.776l-.72.73v1.434h1.135l.794-.805A2.505,2.505,0,0,0,16.135,12.776Z" fill="#2d4456"/>
  <path id="Path_10" data-name="Path 10" d="M16.452,14.455a1.551,1.551,0,0,0-2.9,0A1.373,1.373,0,0,0,15,16.006,1.373,1.373,0,0,0,16.452,14.455Z" fill="#ff5876"/>
  <path id="Path_11" data-name="Path 11" d="M15,15.462a1.551,1.551,0,0,1-1.452-1.006,1.55,1.55,0,1,0,2.9,0A1.551,1.551,0,0,1,15,15.462Z" fill="#e6485d"/>
  <path id="Path_12" data-name="Path 12" d="M15.454,5.483V4.075a.455.455,0,1,0-.909,0V5.483a.455.455,0,1,0,.909,0Z" fill="#405b6c"/>
  <path id="Path_13" data-name="Path 13" d="M14.545,24.517v1.408a.455.455,0,0,0,.909,0V24.517a.455.455,0,1,0-.909,0Z" fill="#405b6c"/>
  <path id="Path_14" data-name="Path 14" d="M25.925,15.454a.455.455,0,1,0,0-.909H24.517a.455.455,0,0,0,0,.909Z" fill="#405b6c"/>
  <path id="Path_15" data-name="Path 15" d="M4.075,14.545a.455.455,0,1,0,0,.909H5.483a.455.455,0,1,0,0-.909Z" fill="#405b6c"/>
</svg>
