<svg xmlns="http://www.w3.org/2000/svg" xmlns:xlink="http://www.w3.org/1999/xlink" width="53" height="53" viewBox="0 0 53 53">
  <defs>
    <clipPath id="clip-path">
      <rect id="Rectangle_1" data-name="Rectangle 1" width="48.93" height="52.806" transform="translate(0 0)" fill="none"/>
    </clipPath>
    <clipPath id="clip-Email-icon">
      <rect width="53" height="53"/>
    </clipPath>
  </defs>
  <g id="Email-icon" clip-path="url(#clip-Email-icon)">
    <rect width="53" height="53" fill="#fff"/>
    <g id="Group_4" data-name="Group 4" transform="translate(2 0)">
      <g id="Group_3" data-name="Group 3" clip-path="url(#clip-path)">
        <path id="Path_4" data-name="Path 4" d="M24.464,27.509h.029A13.585,13.585,0,0,0,30.107,26.3a1.522,1.522,0,1,0-1.249-2.776,10.713,10.713,0,1,1,6.318-9.776,11.325,11.325,0,0,1-.671,3.7,2.013,2.013,0,0,1-1.72,1.45A1.955,1.955,0,0,1,31,16.812V8.645a1.523,1.523,0,0,0-1.521-1.523h0a1.513,1.513,0,0,0-1.075.446,1.473,1.473,0,0,0-.394.7,6.539,6.539,0,1,0,.4,10.7,4.849,4.849,0,0,0,4.377,2.977,5.028,5.028,0,0,0,4.58-3.449,14.464,14.464,0,0,0,.854-4.74A13.755,13.755,0,1,0,24.464,27.509m3.5-13.755a3.5,3.5,0,1,1-3.5-3.495,3.505,3.505,0,0,1,3.5,3.495" fill="#a63694"/>
        <path id="Path_5" data-name="Path 5" d="M48.229,21.345l-6.173-4.686a1.522,1.522,0,0,0-2.44,1.4,1.53,1.53,0,0,0,.6,1.026L45.02,22.73,33.389,31.522a1.522,1.522,0,0,0-.332,2.126,1.531,1.531,0,0,0,2.164.3L45.886,25.89V48.907a.859.859,0,0,1-.857.857H3.9a.86.86,0,0,1-.858-.857v-23l10.525,8.013a1.491,1.491,0,0,0,1.126.293,1.521,1.521,0,0,0,.716-2.716L3.9,22.734l4.844-3.677a1.522,1.522,0,0,0-1.843-2.423L.7,21.345A1.782,1.782,0,0,0,0,22.756V48.907a3.905,3.905,0,0,0,3.9,3.9H45.029a3.905,3.905,0,0,0,3.9-3.9V22.756a1.783,1.783,0,0,0-.7-1.411" fill="#a63694"/>
        <path id="Path_6" data-name="Path 6" d="M21.446,30.9,4.831,45.565a1.522,1.522,0,0,0,2.018,2.278l16.61-14.664a1.455,1.455,0,0,1,1.91,0L42.083,47.845a1.508,1.508,0,0,0,1.012.388q.043,0,.087,0a1.523,1.523,0,0,0,1.435-1.6,1.525,1.525,0,0,0-.525-1.066L27.376,30.888a4.508,4.508,0,0,0-5.93.01" fill="#a63694"/>
      </g>
    </g>
  </g>
</svg>
