<svg xmlns="http://www.w3.org/2000/svg" width="41" height="34" viewBox="0 0 41 34">
  <path id="Path_16" data-name="Path 16" d="M50.981,28.546a5.919,5.919,0,0,1-5.64,6.17q-.137.006-.274.006a5.772,5.772,0,0,1-1.235-.134,15.9,15.9,0,0,1-10.752,7.072,3.456,3.456,0,1,1-.11-2.507A13.443,13.443,0,1,0,17.1,25.936a13.485,13.485,0,0,0,1.7,6.55.818.818,0,0,1,.084.211,1.243,1.243,0,0,1-.688,1.566,5.819,5.819,0,0,1-2.266.459q-.137,0-.275-.006a5.918,5.918,0,0,1-5.636-6.17c.026-.625.012-1.183,0-1.723-.013-.508-.027-1.033,0-1.581a5.92,5.92,0,0,1,5.934-5.666,15.849,15.849,0,0,1,29.108,0,5.916,5.916,0,0,1,5.934,5.665c.023.549.009,1.074,0,1.582C50.969,27.362,50.954,27.92,50.981,28.546ZM40.9,25.936a10.426,10.426,0,0,1-8.355,10.235,10.365,10.365,0,0,1-4.715-.145l-4.209,2.44a1.242,1.242,0,0,1-1.818-1.4l1.076-4.028a10.419,10.419,0,1,1,18.021-7.1Zm-13.29,0a1.242,1.242,0,0,0-1.24-1.245h0a1.24,1.24,0,0,0-1.144.77,1.245,1.245,0,0,0,.905,1.7,1.238,1.238,0,0,0,1.272-.53,1.248,1.248,0,0,0,.209-.691Zm4.131,0a1.3,1.3,0,0,0-.025-.243.959.959,0,0,0-.03-.118c-.011-.039-.025-.077-.04-.115a1.029,1.029,0,0,0-.052-.11,1.227,1.227,0,0,0-.135-.2,1.045,1.045,0,0,0-.082-.09,1.208,1.208,0,0,0-.09-.083c-.031-.025-.064-.05-.1-.072a1.177,1.177,0,0,0-.1-.062c-.036-.019-.073-.037-.11-.052a1.119,1.119,0,0,0-.114-.041,1.086,1.086,0,0,0-.238-.048,1.268,1.268,0,0,0-.364.017,1.205,1.205,0,0,0-.118.031,1.106,1.106,0,0,0-.114.041c-.037.016-.074.033-.11.052s-.07.04-.1.062a1.2,1.2,0,0,0-.1.072c-.032.027-.062.054-.091.083a1.047,1.047,0,0,0-.082.09,1.22,1.22,0,0,0-.072.1,1.175,1.175,0,0,0-.063.1,1.1,1.1,0,0,0-.051.11q-.024.057-.041.115c-.011.038-.021.078-.03.118a1.182,1.182,0,0,0-.018.121,1.214,1.214,0,0,0-.006.122c0,.041,0,.082.006.123s.01.081.018.12.018.08.03.119.026.077.041.115a1.115,1.115,0,0,0,.051.11c.019.036.041.071.063.1a1.249,1.249,0,0,0,.154.189c.029.028.059.056.091.082a1.04,1.04,0,0,0,.1.072c.034.022.069.044.1.063a1.356,1.356,0,0,0,.224.093c.039.012.079.022.118.03a1.18,1.18,0,0,0,.242.024,1.245,1.245,0,0,0,.876-.364,1.342,1.342,0,0,0,.155-.189q.033-.051.062-.1c.019-.036.036-.073.052-.11a1.172,1.172,0,0,0,.04-.115,1.011,1.011,0,0,0,.03-.119q.012-.06.018-.12a1.2,1.2,0,0,0,.006-.123Zm4.133,0a1.242,1.242,0,0,0-1.24-1.245h0a1.24,1.24,0,0,0-1.144.77,1.245,1.245,0,0,0,.905,1.7,1.237,1.237,0,0,0,1.272-.53A1.248,1.248,0,0,0,35.873,25.936Z" transform="translate(-10 -10)" fill="#a33298"/>
</svg>
