<svg version="1.1" id="Layer_1" xmlns="http://www.w3.org/2000/svg" xmlns:xlink="http://www.w3.org/1999/xlink" x="0px" y="0px"
	 width="100%" viewBox="0 0 63 74" enable-background="new 0 0 63 74" xml:space="preserve">
<path fill="#000000" opacity="1.000000" stroke="none" 
	d="
M64.000000,14.000000 
	C64.000000,29.354227 64.000000,44.708454 63.658287,60.657692 
	C60.012302,58.619678 56.708027,55.986656 53.421612,53.367867 
	C47.755016,58.353806 41.406216,60.993416 34.152073,59.800663 
	C27.161062,58.651173 21.773623,54.466434 17.335247,48.009499 
	C17.892273,63.265968 35.136253,74.573769 48.790775,71.426102 
	C54.073570,70.208305 58.942513,67.195206 64.000000,65.000000 
	C64.000000,68.288467 64.000000,71.576927 64.000000,75.000000 
	C56.646225,75.000000 49.291851,75.000000 41.308758,74.663986 
	C39.789413,73.906776 38.936405,73.247116 38.002571,73.099785 
	C21.441422,70.486923 10.336989,50.994488 14.995788,35.361923 
	C18.063990,25.066597 26.101606,13.839514 39.110989,15.965632 
	C39.784225,16.075659 40.518036,15.815060 41.729416,15.663900 
	C28.997850,7.698638 11.793264,12.632028 3.990603,25.882906 
	C3.279644,27.090292 2.010134,27.968781 1.000000,29.000000 
	C1.000000,19.745932 1.000000,10.491863 1.000000,1.000000 
	C8.685910,1.000000 16.374264,1.000000 24.627243,1.356219 
	C22.975431,3.072251 20.780590,4.468892 18.537891,5.783920 
	C14.359359,8.234043 10.445859,10.930246 8.362606,16.067423 
	C25.439890,5.422205 40.613674,7.682861 53.708344,21.890287 
	C57.395977,19.063095 60.697987,16.531548 64.000000,14.000000 
M6.305345,17.608700 
	C6.412685,17.877897 6.520025,18.147095 6.627366,18.416292 
	C6.751177,18.311489 6.987932,18.193354 6.977434,18.104401 
	C6.947032,17.846817 6.817257,17.600965 6.305345,17.608700 
z"/>
<path fill="#C2285C" opacity="1.000000" stroke="none" 
	d="
M1.000000,29.468578 
	C2.010134,27.968781 3.279644,27.090292 3.990603,25.882906 
	C11.793264,12.632028 28.997850,7.698638 41.729416,15.663900 
	C40.518036,15.815060 39.784225,16.075659 39.110989,15.965632 
	C26.101606,13.839514 18.063990,25.066597 14.995788,35.361923 
	C10.336989,50.994488 21.441422,70.486923 38.002571,73.099785 
	C38.936405,73.247116 39.789413,73.906776 40.840019,74.663986 
	C36.643101,75.000000 32.286201,75.000000 27.712059,74.673080 
	C27.294130,74.085571 27.146511,73.682007 26.885118,73.584984 
	C16.007935,69.547783 7.681449,62.721027 2.900513,51.916599 
	C2.683724,51.426670 1.652101,51.297306 0.999999,51.000000 
	C1.000000,43.979053 1.000000,36.958103 1.000000,29.468578 
z"/>
<path fill="#1E458A" opacity="1.000000" stroke="none" 
	d="
M64.000000,13.600004 
	C60.697987,16.531548 57.395977,19.063095 53.708344,21.890287 
	C40.613674,7.682861 25.439890,5.422205 8.362606,16.067423 
	C10.445859,10.930246 14.359359,8.234043 18.537891,5.783920 
	C20.780590,4.468892 22.975431,3.072251 25.095936,1.356219 
	C32.687576,1.000000 40.375153,1.000000 48.451469,1.366269 
	C53.893475,4.488359 58.946739,7.244179 64.000000,10.000000 
	C64.000000,11.066669 64.000000,12.133339 64.000000,13.600004 
z"/>
<path fill="#1E458A" opacity="1.000000" stroke="none" 
	d="
M64.000000,64.600006 
	C58.942513,67.195206 54.073570,70.208305 48.790775,71.426102 
	C35.136253,74.573769 17.892273,63.265968 17.335247,48.009499 
	C21.773623,54.466434 27.161062,58.651173 34.152073,59.800663 
	C41.406216,60.993416 47.755016,58.353806 53.421612,53.367867 
	C56.708027,55.986656 60.012302,58.619678 63.658287,61.126350 
	C64.000000,62.066669 64.000000,63.133343 64.000000,64.600006 
z"/>
<path fill="#000000" opacity="1.000000" stroke="none" 
	d="
M0.999999,51.468697 
	C1.652101,51.297306 2.683724,51.426670 2.900513,51.916599 
	C7.681449,62.721027 16.007935,69.547783 26.885118,73.584984 
	C27.146511,73.682007 27.294130,74.085571 27.247408,74.673080 
	C18.409912,75.000000 9.819825,75.000000 1.000000,75.000000 
	C1.000000,67.313980 1.000000,59.625683 0.999999,51.468697 
z"/>
<path fill="#000000" opacity="1.000000" stroke="none" 
	d="
M64.000000,9.508951 
	C58.946739,7.244179 53.893475,4.488359 48.920105,1.366269 
	C53.897427,1.000000 58.794849,1.000000 64.000000,1.000000 
	C64.000000,3.665190 64.000000,6.341547 64.000000,9.508951 
z"/>
<path fill="#1E458A" opacity="1.000000" stroke="none" 
	d="
M6.515915,17.479603 
	C6.817257,17.600965 6.947032,17.846817 6.977434,18.104401 
	C6.987932,18.193354 6.751177,18.311489 6.627365,18.416292 
	C6.520025,18.147095 6.412685,17.877897 6.515915,17.479603 
z"/>
</svg>